# xmcd CD database file
#
# Track frame offsets:
#	150
#	11645
#	25292
#	40150
#	56250
#	66367
#	100425
#	108997
#	123250
#	141000
#	160835
#	178722
#
# Disc length: 2667 seconds
#
# Revision: 4
# Processed by: cddbd v1.5PL3 Copyright (c) Steve Scherf et al.
# Submitted via: CDex 1.50beta10
#
DISCID=9d0a690c
DTITLE=Graham Coxon - The Golden D
DYEAR=2000
DGENRE=Rock
TTITLE0=Jamie Thomas
TTITLE1=The Fear
TTITLE2=Satan i Gatan
TTITLE3=Fame And Fortune
TTITLE4=My Idea Of Hell
TTITLE5=Lake
TTITLE6=Fags And Failure
TTITLE7=Leave Me Alone
TTITLE8=Keep Hope Alive
TTITLE9=Oochy Woochy
TTITLE10=That's When I Reach For My Revolver
TTITLE11=Don't Think About Always
EXTD=(P) 2000, EMI Records Ltd.\n(C) 2000, Transopic Records Ltd.\nEMI 7243 527024 2 8\n YEAR: 2000
EXTT0=
EXTT1=
EXTT2=
EXTT3=
EXTT4=
EXTT5=
EXTT6=
EXTT7=
EXTT8=
EXTT9=
EXTT10=
EXTT11=
PLAYORDER=
